M48
; DRILL file {KiCad 8.0.4} date 2024-08-15T01:20:29+0800
; FORMAT={-:-/ absolute / metric / decimal}
; #@! TF.CreationDate,2024-08-15T01:20:29+08:00
; #@! TF.GenerationSoftware,Kicad,Pcbnew,8.0.4
; #@! TF.FileFunction,Plated,1,2,PTH
FMAT,2
METRIC
; #@! TA.AperFunction,Plated,PTH,ComponentDrill
T1C0.200
; #@! TA.AperFunction,Plated,PTH,ViaDrill
T2C0.300
; #@! TA.AperFunction,Plated,PTH,ViaDrill
T3C0.400
; #@! TA.AperFunction,Plated,PTH,ComponentDrill
T4C0.600
; #@! TA.AperFunction,Plated,PTH,ComponentDrill
T5C1.200
; #@! TA.AperFunction,Plated,PTH,ComponentDrill
T6C1.600
%
G90
G05
T1
X126.07Y-105.411
X126.07Y-106.511
X126.62Y-104.861
X126.62Y-105.961
X126.62Y-107.061
X127.17Y-105.411
X127.17Y-106.511
X127.72Y-104.861
X127.72Y-105.961
X127.72Y-107.061
X128.27Y-105.411
X128.27Y-106.511
T2
X67.452Y-57.0
X67.945Y-79.121
X69.215Y-79.121
X69.65Y-52.873
X70.35Y-53.375
X70.352Y-105.75
X70.4Y-107.55
X70.852Y-58.552
X72.563Y-105.171
X73.087Y-104.622
X73.459Y-71.859
X73.469Y-69.869
X73.971Y-69.366
X74.009Y-71.309
X75.804Y-58.546
X77.724Y-65.405
X79.375Y-56.515
X80.391Y-95.758
X91.972Y-81.0
X92.221Y-110.021
X98.552Y-91.948
X111.506Y-97.748
X113.294Y-94.107
X118.11Y-109.22
X118.11Y-110.617
X120.65Y-112.141
X123.4Y-90.698
X130.05Y-90.698
X130.75Y-63.35
X130.937Y-109.849
X131.402Y-109.347
X140.427Y-97.29
X140.848Y-96.788
X140.97Y-101.854
X143.256Y-100.203
X143.991Y-96.546
X144.11Y-100.705
X144.669Y-96.514
X148.5Y-111.0
X152.527Y-99.852
X156.0Y-74.55
X156.337Y-46.42
X156.591Y-65.203
X156.591Y-84.328
X156.591Y-88.265
X156.952Y-44.496
T3
X66.294Y-76.581
X67.245Y-89.408
X69.215Y-90.424
X69.65Y-57.852
X73.432Y-59.245
X74.85Y-92.95
X75.25Y-78.35
X75.694Y-60.352
X113.73Y-113.836
X114.554Y-112.861
X115.443Y-112.861
X116.332Y-112.861
X117.235Y-112.861
X118.085Y-112.861
X118.511Y-95.357
X120.484Y-93.664
X122.034Y-94.094
X136.373Y-96.088
X138.175Y-112.861
X138.575Y-99.485
X139.065Y-112.861
X139.954Y-112.861
X140.126Y-103.961
X141.605Y-108.966
X142.025Y-96.712
X153.85Y-93.14
X154.559Y-47.879
X155.619Y-95.187
X162.45Y-95.441
T5
X69.676Y-116.913
X75.056Y-116.231
X81.794Y-45.6
X81.794Y-64.725
X81.794Y-83.85
X86.599Y-102.573
X86.794Y-47.7
X86.794Y-66.825
X86.794Y-85.95
X91.972Y-103.308
X100.794Y-42.85
X100.794Y-61.975
X100.794Y-81.1
X105.794Y-44.95
X105.794Y-64.075
X105.794Y-83.2
X108.294Y-98.95
X113.294Y-101.05
X119.794Y-40.35
X119.794Y-59.475
X119.794Y-78.6
X124.794Y-42.45
X124.794Y-61.575
X124.794Y-80.7
X138.794Y-45.6
X138.794Y-64.725
X138.794Y-83.85
X143.794Y-47.7
X143.794Y-66.825
X143.794Y-85.95
X157.794Y-53.35
X157.794Y-72.475
X157.794Y-91.6
X162.794Y-55.45
X162.794Y-74.575
X162.794Y-93.7
T6
X70.871Y-128.982
X76.794Y-56.65
X76.794Y-75.775
X76.794Y-94.9
X84.63Y-114.541
X95.794Y-53.9
X95.794Y-73.025
X95.794Y-92.15
X103.294Y-110.0
X114.794Y-51.4
X114.794Y-70.525
X114.794Y-89.65
X133.794Y-56.65
X133.794Y-75.775
X133.794Y-94.9
X152.794Y-64.4
X152.794Y-83.525
X152.794Y-102.65
T4
G00X66.944Y-101.5
M15
G01X66.144Y-101.5
M16
G05
G00X66.944Y-110.14
M15
G01X66.144Y-110.14
M16
G05
G00X71.274Y-101.5
M15
G01X70.174Y-101.5
M16
G05
G00X71.274Y-110.14
M15
G01X70.174Y-110.14
M16
G05
G00X152.64Y-41.09
M15
G01X152.64Y-40.29
M16
G05
G00X152.64Y-45.42
M15
G01X152.64Y-44.32
M16
G05
G00X161.28Y-41.09
M15
G01X161.28Y-40.29
M16
G05
G00X161.28Y-45.42
M15
G01X161.28Y-44.32
M16
G05
M30
