%TF.GenerationSoftware,KiCad,Pcbnew,8.0.4*%
%TF.CreationDate,2024-08-15T01:19:59+08:00*%
%TF.ProjectId,gemini_right,67656d69-6e69-45f7-9269-6768742e6b69,rev?*%
%TF.SameCoordinates,Original*%
%TF.FileFunction,Soldermask,Top*%
%TF.FilePolarity,Negative*%
%FSLAX46Y46*%
G04 Gerber Fmt 4.6, Leading zero omitted, Abs format (unit mm)*
G04 Created by KiCad (PCBNEW 8.0.4) date 2024-08-15 01:19:59*
%MOMM*%
%LPD*%
G01*
G04 APERTURE LIST*
G04 Aperture macros list*
%AMRoundRect*
0 Rectangle with rounded corners*
0 $1 Rounding radius*
0 $2 $3 $4 $5 $6 $7 $8 $9 X,Y pos of 4 corners*
0 Add a 4 corners polygon primitive as box body*
4,1,4,$2,$3,$4,$5,$6,$7,$8,$9,$2,$3,0*
0 Add four circle primitives for the rounded corners*
1,1,$1+$1,$2,$3*
1,1,$1+$1,$4,$5*
1,1,$1+$1,$6,$7*
1,1,$1+$1,$8,$9*
0 Add four rect primitives between the rounded corners*
20,1,$1+$1,$2,$3,$4,$5,0*
20,1,$1+$1,$4,$5,$6,$7,0*
20,1,$1+$1,$6,$7,$8,$9,0*
20,1,$1+$1,$8,$9,$2,$3,0*%
G04 Aperture macros list end*
%ADD10RoundRect,0.250000X-0.109808X-0.409808X0.409808X-0.109808X0.109808X0.409808X-0.409808X0.109808X0*%
%ADD11RoundRect,0.062500X0.062500X-0.325000X0.062500X0.325000X-0.062500X0.325000X-0.062500X-0.325000X0*%
%ADD12R,1.400000X1.400000*%
%ADD13R,1.250000X0.300000*%
%ADD14R,2.500000X2.000000*%
%ADD15RoundRect,0.250000X-0.300000X-0.300000X0.300000X-0.300000X0.300000X0.300000X-0.300000X0.300000X0*%
%ADD16C,1.900000*%
%ADD17C,2.600000*%
%ADD18C,5.050000*%
%ADD19C,2.200000*%
%ADD20RoundRect,0.237500X0.250000X0.237500X-0.250000X0.237500X-0.250000X-0.237500X0.250000X-0.237500X0*%
%ADD21RoundRect,0.237500X0.300000X0.237500X-0.300000X0.237500X-0.300000X-0.237500X0.300000X-0.237500X0*%
%ADD22R,0.700000X1.550000*%
%ADD23R,3.500000X2.600000*%
%ADD24RoundRect,0.237500X-0.250000X-0.237500X0.250000X-0.237500X0.250000X0.237500X-0.250000X0.237500X0*%
%ADD25RoundRect,0.237500X-0.300000X-0.237500X0.300000X-0.237500X0.300000X0.237500X-0.300000X0.237500X0*%
%ADD26RoundRect,0.150000X0.150000X-0.512500X0.150000X0.512500X-0.150000X0.512500X-0.150000X-0.512500X0*%
%ADD27RoundRect,0.237500X-0.237500X0.300000X-0.237500X-0.300000X0.237500X-0.300000X0.237500X0.300000X0*%
%ADD28R,0.450000X1.475000*%
%ADD29RoundRect,0.237500X0.237500X-0.300000X0.237500X0.300000X-0.237500X0.300000X-0.237500X-0.300000X0*%
%ADD30RoundRect,0.237500X-0.237500X0.250000X-0.237500X-0.250000X0.237500X-0.250000X0.237500X0.250000X0*%
%ADD31RoundRect,0.237500X0.287500X0.237500X-0.287500X0.237500X-0.287500X-0.237500X0.287500X-0.237500X0*%
%ADD32RoundRect,0.237500X0.237500X-0.250000X0.237500X0.250000X-0.237500X0.250000X-0.237500X-0.250000X0*%
%ADD33R,1.250000X1.000000*%
%ADD34RoundRect,0.250000X-0.212132X-0.367423X0.367423X-0.212132X0.212132X0.367423X-0.367423X0.212132X0*%
%ADD35C,0.650000*%
%ADD36RoundRect,0.150000X0.150000X0.425000X-0.150000X0.425000X-0.150000X-0.425000X0.150000X-0.425000X0*%
%ADD37RoundRect,0.075000X0.075000X0.500000X-0.075000X0.500000X-0.075000X-0.500000X0.075000X-0.500000X0*%
%ADD38O,1.000000X2.100000*%
%ADD39O,1.000000X1.800000*%
%ADD40R,1.500000X2.500000*%
%ADD41R,1.700000X0.700000*%
%ADD42R,2.500000X1.800000*%
%ADD43R,1.500000X0.900000*%
%ADD44C,0.600000*%
%ADD45R,2.900000X2.900000*%
%ADD46RoundRect,0.150000X-0.425000X0.150000X-0.425000X-0.150000X0.425000X-0.150000X0.425000X0.150000X0*%
%ADD47RoundRect,0.075000X-0.500000X0.075000X-0.500000X-0.075000X0.500000X-0.075000X0.500000X0.075000X0*%
%ADD48O,2.100000X1.000000*%
%ADD49O,1.800000X1.000000*%
G04 APERTURE END LIST*
D10*
%TO.C,D18*%
X73913787Y-127052245D03*
X76338659Y-125652245D03*
%TD*%
D11*
%TO.C,IC1*%
X66950000Y-60672500D03*
X67450000Y-60672500D03*
X67950000Y-60672500D03*
X68450000Y-60672500D03*
X68450000Y-57747500D03*
X67950000Y-57747500D03*
X67450000Y-57747500D03*
X66950000Y-57747500D03*
D12*
X67700000Y-59210000D03*
%TD*%
D13*
%TO.C,J1*%
X71337500Y-50875000D03*
X71337500Y-51375000D03*
X71337500Y-51875000D03*
X71337500Y-52375000D03*
X71337500Y-52875000D03*
X71337500Y-53375000D03*
D14*
X68762500Y-49185000D03*
X68762500Y-55065000D03*
%TD*%
D15*
%TO.C,D2*%
X156494228Y-83375000D03*
X159294228Y-83375000D03*
%TD*%
D16*
%TO.C,SW6*%
X133294228Y-89750000D03*
D17*
X133794228Y-94900000D03*
D18*
X138794228Y-89750000D03*
D16*
X144294228Y-89750000D03*
D19*
X138794228Y-83850000D03*
X143794228Y-85950000D03*
%TD*%
D15*
%TO.C,D5*%
X137494228Y-75625000D03*
X140294228Y-75625000D03*
%TD*%
D20*
%TO.C,R4*%
X121054500Y-98044000D03*
X119229500Y-98044000D03*
%TD*%
D21*
%TO.C,C8*%
X145261501Y-109220000D03*
X143536499Y-109220000D03*
%TD*%
D16*
%TO.C,SW18*%
X67863082Y-124772118D03*
D17*
X70871095Y-128982149D03*
D18*
X72626222Y-122022118D03*
D16*
X77389362Y-119272118D03*
D19*
X69676222Y-116912568D03*
X75056349Y-116231221D03*
%TD*%
D15*
%TO.C,D15*%
X80394228Y-94750000D03*
X83194228Y-94750000D03*
%TD*%
D16*
%TO.C,SW10*%
X95294228Y-48750000D03*
D17*
X95794228Y-53900000D03*
D18*
X100794228Y-48750000D03*
D16*
X106294228Y-48750000D03*
D19*
X100794228Y-42850000D03*
X105794228Y-44950000D03*
%TD*%
D21*
%TO.C,C12*%
X145261501Y-111823500D03*
X143536499Y-111823500D03*
%TD*%
D22*
%TO.C,U1*%
X71804999Y-80350000D03*
X70535000Y-80350000D03*
X69265000Y-80350000D03*
X67995001Y-80350000D03*
X67995001Y-85800000D03*
X69265000Y-85800000D03*
X70535000Y-85800000D03*
X71804999Y-85800000D03*
D23*
X69900000Y-83075000D03*
%TD*%
D16*
%TO.C,SW16*%
X102794228Y-104850000D03*
D17*
X103294228Y-110000000D03*
D18*
X108294228Y-104850000D03*
D16*
X113794228Y-104850000D03*
D19*
X108294228Y-98950000D03*
X113294228Y-101050000D03*
%TD*%
D24*
%TO.C,R10*%
X161428301Y-108800600D03*
X163253301Y-108800600D03*
%TD*%
D25*
%TO.C,C2*%
X70762498Y-89435000D03*
X72487500Y-89435000D03*
%TD*%
D24*
%TO.C,R9*%
X161428301Y-106965600D03*
X163253301Y-106965600D03*
%TD*%
D26*
%TO.C,U2*%
X69530001Y-93612500D03*
X71429999Y-93612500D03*
X70480000Y-91337500D03*
%TD*%
D24*
%TO.C,R8*%
X67881911Y-97570294D03*
X69706911Y-97570294D03*
%TD*%
D21*
%TO.C,C5*%
X145261501Y-113538000D03*
X143536499Y-113538000D03*
%TD*%
D15*
%TO.C,D8*%
X118444228Y-70375000D03*
X121244228Y-70375000D03*
%TD*%
%TO.C,D13*%
X80394228Y-56500000D03*
X83194228Y-56500000D03*
%TD*%
D27*
%TO.C,C11*%
X71625000Y-95893088D03*
X71625000Y-97618090D03*
%TD*%
D28*
%TO.C,IC2*%
X140951000Y-104738000D03*
X141601000Y-104738000D03*
X142251000Y-104738000D03*
X142901000Y-104738000D03*
X143551000Y-104738000D03*
X144201000Y-104738000D03*
X144851000Y-104738000D03*
X145501000Y-104738000D03*
X146151000Y-104738000D03*
X146801000Y-104738000D03*
X147451000Y-104738000D03*
X148101000Y-104738000D03*
X148101000Y-98862000D03*
X147451000Y-98862000D03*
X146801000Y-98862000D03*
X146151000Y-98862000D03*
X145501000Y-98862000D03*
X144851000Y-98862000D03*
X144201000Y-98862000D03*
X143551000Y-98862000D03*
X142901000Y-98862000D03*
X142251000Y-98862000D03*
X141601000Y-98862000D03*
X140951000Y-98862000D03*
%TD*%
D16*
%TO.C,SW17*%
X82813630Y-109695623D03*
D17*
X84629511Y-114540731D03*
D18*
X88126222Y-108272118D03*
D16*
X93438814Y-106848613D03*
D19*
X86599190Y-102573156D03*
X91972339Y-103307505D03*
%TD*%
D15*
%TO.C,D3*%
X156494228Y-102500000D03*
X159294228Y-102500000D03*
%TD*%
D16*
%TO.C,SW15*%
X76294228Y-89750000D03*
D17*
X76794228Y-94900000D03*
D18*
X81794228Y-89750000D03*
D16*
X87294228Y-89750000D03*
D19*
X81794228Y-83850000D03*
X86794228Y-85950000D03*
%TD*%
D29*
%TO.C,C6*%
X66504999Y-64487501D03*
X66504999Y-62762499D03*
%TD*%
D30*
%TO.C,R5*%
X163525001Y-43001911D03*
X163525001Y-44826911D03*
%TD*%
D15*
%TO.C,D10*%
X99444228Y-53750000D03*
X102244228Y-53750000D03*
%TD*%
D31*
%TO.C,D20*%
X159670799Y-108840600D03*
X157920801Y-108840600D03*
%TD*%
D16*
%TO.C,SW4*%
X133294228Y-51500000D03*
D17*
X133794228Y-56650000D03*
D18*
X138794228Y-51500000D03*
D16*
X144294228Y-51500000D03*
D19*
X138794228Y-45600000D03*
X143794228Y-47700000D03*
%TD*%
D24*
%TO.C,R7*%
X67881911Y-95835589D03*
X69706911Y-95835589D03*
%TD*%
D16*
%TO.C,SW9*%
X114294228Y-84500000D03*
D17*
X114794228Y-89650000D03*
D18*
X119794228Y-84500000D03*
D16*
X125294228Y-84500000D03*
D19*
X119794228Y-78600000D03*
X124794228Y-80700000D03*
%TD*%
D24*
%TO.C,R2*%
X68322500Y-64525001D03*
X70147500Y-64525001D03*
%TD*%
D29*
%TO.C,C7*%
X70164999Y-61767501D03*
X70164999Y-60042499D03*
%TD*%
D32*
%TO.C,R1*%
X66295000Y-85697498D03*
X66295000Y-83872498D03*
%TD*%
D16*
%TO.C,SW3*%
X152294228Y-97500000D03*
D17*
X152794228Y-102650000D03*
D18*
X157794228Y-97500000D03*
D16*
X163294228Y-97500000D03*
D19*
X157794228Y-91600000D03*
X162794228Y-93700000D03*
%TD*%
D15*
%TO.C,D7*%
X118444228Y-51250000D03*
X121244228Y-51250000D03*
%TD*%
D16*
%TO.C,SW2*%
X152294228Y-78375000D03*
D17*
X152794228Y-83525000D03*
D18*
X157794228Y-78375000D03*
D16*
X163294228Y-78375000D03*
D19*
X157794228Y-72475000D03*
X162794228Y-74575000D03*
%TD*%
D24*
%TO.C,R11*%
X67881911Y-99305000D03*
X69706911Y-99305000D03*
%TD*%
D33*
%TO.C,SW19*%
X149668000Y-110998000D03*
X157418000Y-110998000D03*
%TD*%
D15*
%TO.C,D12*%
X99444228Y-92000000D03*
X102244228Y-92000000D03*
%TD*%
%TO.C,D14*%
X80394228Y-75625000D03*
X83194228Y-75625000D03*
%TD*%
D29*
%TO.C,C16*%
X71875001Y-67337501D03*
X71875001Y-65612499D03*
%TD*%
D34*
%TO.C,D17*%
X88068022Y-113464094D03*
X90772614Y-112739400D03*
%TD*%
D16*
%TO.C,SW1*%
X152294228Y-59250000D03*
D17*
X152794228Y-64400000D03*
D18*
X157794228Y-59250000D03*
D16*
X163294228Y-59250000D03*
D19*
X157794228Y-53350000D03*
X162794228Y-55450000D03*
%TD*%
D35*
%TO.C,J2_toHost1*%
X159850000Y-44369999D03*
X154070000Y-44369999D03*
D36*
X160160000Y-45444999D03*
X159360000Y-45444999D03*
D37*
X158210000Y-45444999D03*
X157210000Y-45444999D03*
X156710000Y-45444999D03*
X155710000Y-45444999D03*
D36*
X154560000Y-45444999D03*
X153760000Y-45444999D03*
X153760000Y-45444999D03*
X154560000Y-45444999D03*
D37*
X155210000Y-45444999D03*
X156210000Y-45444999D03*
X157710000Y-45444999D03*
X158710000Y-45444999D03*
D36*
X159360000Y-45444999D03*
X160160000Y-45444999D03*
D38*
X161280000Y-44869999D03*
D39*
X161280000Y-40689999D03*
D38*
X152640000Y-44869999D03*
D39*
X152640000Y-40689999D03*
%TD*%
D30*
%TO.C,R6*%
X150394999Y-43001911D03*
X150394999Y-44826911D03*
%TD*%
D40*
%TO.C,L1*%
X67974999Y-76520000D03*
X71675001Y-76520000D03*
%TD*%
D15*
%TO.C,D16*%
X106894228Y-109850000D03*
X109694228Y-109850000D03*
%TD*%
D32*
%TO.C,R13*%
X141478000Y-111910500D03*
X141478000Y-110085500D03*
%TD*%
D20*
%TO.C,R12*%
X148867500Y-113538000D03*
X147042500Y-113538000D03*
%TD*%
D16*
%TO.C,SW8*%
X114294228Y-65375000D03*
D17*
X114794228Y-70525000D03*
D18*
X119794228Y-65375000D03*
D16*
X125294228Y-65375000D03*
D19*
X119794228Y-59475000D03*
X124794228Y-61575000D03*
%TD*%
D25*
%TO.C,C3*%
X70762499Y-87794411D03*
X72487501Y-87794411D03*
%TD*%
D15*
%TO.C,D1*%
X156494228Y-64250000D03*
X159294228Y-64250000D03*
%TD*%
%TO.C,D6*%
X137494228Y-94750000D03*
X140294228Y-94750000D03*
%TD*%
D16*
%TO.C,SW7*%
X114294228Y-46250000D03*
D17*
X114794228Y-51400000D03*
D18*
X119794228Y-46250000D03*
D16*
X125294228Y-46250000D03*
D19*
X119794228Y-40350000D03*
X124794228Y-42450000D03*
%TD*%
D27*
%TO.C,C13*%
X72005000Y-54672499D03*
X72005000Y-56397501D03*
%TD*%
D29*
%TO.C,C10*%
X67715000Y-92937502D03*
X67715000Y-91212500D03*
%TD*%
D16*
%TO.C,SW13*%
X76294228Y-51500000D03*
D17*
X76794228Y-56650000D03*
D18*
X81794228Y-51500000D03*
D16*
X87294228Y-51500000D03*
D19*
X81794228Y-45600000D03*
X86794228Y-47700000D03*
%TD*%
D30*
%TO.C,R3*%
X71875000Y-61812500D03*
X71875000Y-63637500D03*
%TD*%
D15*
%TO.C,D11*%
X99444228Y-72875000D03*
X102244228Y-72875000D03*
%TD*%
D16*
%TO.C,SW5*%
X133294228Y-70625000D03*
D17*
X133794228Y-75775000D03*
D18*
X138794228Y-70625000D03*
D16*
X144294228Y-70625000D03*
D19*
X138794228Y-64725000D03*
X143794228Y-66825000D03*
%TD*%
D15*
%TO.C,D4*%
X137494228Y-56500000D03*
X140294228Y-56500000D03*
%TD*%
D16*
%TO.C,SW11*%
X95294228Y-67875000D03*
D17*
X95794228Y-73025000D03*
D18*
X100794228Y-67875000D03*
D16*
X106294228Y-67875000D03*
D19*
X100794228Y-61975000D03*
X105794228Y-64075000D03*
%TD*%
D41*
%TO.C,J2*%
X71207503Y-68995000D03*
X71207503Y-70245000D03*
D42*
X68707503Y-66545000D03*
X68707503Y-72695000D03*
%TD*%
D43*
%TO.C,U3*%
X136880000Y-112161000D03*
X136880000Y-110661000D03*
X136880000Y-109161000D03*
X136880000Y-107661000D03*
X136880000Y-106161000D03*
X136880000Y-104661000D03*
X136880000Y-103161000D03*
X136880000Y-101661000D03*
X136880000Y-100161000D03*
X119380000Y-100161000D03*
X119380000Y-101661000D03*
X119380000Y-103161000D03*
X119380000Y-104661000D03*
X119380000Y-106161000D03*
X119380000Y-107661000D03*
X119380000Y-109161000D03*
X119380000Y-110661000D03*
X119380000Y-112161000D03*
D44*
X128270000Y-106510999D03*
X128270000Y-105411000D03*
X127720000Y-107061000D03*
X127720000Y-105961000D03*
X127720000Y-104861000D03*
X127170000Y-106511000D03*
D45*
X127170000Y-105961000D03*
D44*
X127170000Y-105410999D03*
X126620000Y-107061000D03*
X126620000Y-105961000D03*
X126620000Y-104861000D03*
X126070000Y-106510999D03*
X126070000Y-105411000D03*
%TD*%
D16*
%TO.C,SW12*%
X95294228Y-87000000D03*
D17*
X95794228Y-92150000D03*
D18*
X100794228Y-87000000D03*
D16*
X106294228Y-87000000D03*
D19*
X100794228Y-81100000D03*
X105794228Y-83200000D03*
%TD*%
D15*
%TO.C,D9*%
X118444228Y-89500000D03*
X121244228Y-89500000D03*
%TD*%
D31*
%TO.C,D19*%
X159670799Y-107005600D03*
X157920801Y-107005600D03*
%TD*%
D16*
%TO.C,SW14*%
X76294228Y-70625000D03*
D17*
X76794228Y-75775000D03*
D18*
X81794228Y-70625000D03*
D16*
X87294228Y-70625000D03*
D19*
X81794228Y-64725000D03*
X86794228Y-66825000D03*
%TD*%
D21*
%TO.C,C9*%
X154576912Y-48974706D03*
X152851910Y-48974706D03*
%TD*%
D35*
%TO.C,J1_toLeft1*%
X70224227Y-102930000D03*
X70224227Y-108710000D03*
D46*
X71299227Y-102620000D03*
X71299227Y-103420000D03*
D47*
X71299227Y-104570000D03*
X71299227Y-105570000D03*
X71299227Y-106070000D03*
X71299227Y-107070000D03*
D46*
X71299227Y-108220000D03*
X71299227Y-109020000D03*
X71299227Y-109020000D03*
X71299227Y-108220000D03*
D47*
X71299227Y-107570000D03*
X71299227Y-106570000D03*
X71299227Y-105070000D03*
X71299227Y-104070000D03*
D46*
X71299227Y-103420000D03*
X71299227Y-102620000D03*
D48*
X70724227Y-101500000D03*
D49*
X66544227Y-101500000D03*
D48*
X70724227Y-110140000D03*
D49*
X66544227Y-110140000D03*
%TD*%
D25*
%TO.C,C4*%
X67322498Y-87775000D03*
X69047500Y-87775000D03*
%TD*%
D29*
%TO.C,C1*%
X74055000Y-103382501D03*
X74055000Y-101657499D03*
%TD*%
M02*
