%TF.GenerationSoftware,KiCad,Pcbnew,8.0.4*%
%TF.CreationDate,2024-08-15T01:19:59+08:00*%
%TF.ProjectId,gemini_right,67656d69-6e69-45f7-9269-6768742e6b69,rev?*%
%TF.SameCoordinates,Original*%
%TF.FileFunction,Soldermask,Bot*%
%TF.FilePolarity,Negative*%
%FSLAX46Y46*%
G04 Gerber Fmt 4.6, Leading zero omitted, Abs format (unit mm)*
G04 Created by KiCad (PCBNEW 8.0.4) date 2024-08-15 01:19:59*
%MOMM*%
%LPD*%
G01*
G04 APERTURE LIST*
%ADD10C,1.900000*%
%ADD11C,2.600000*%
%ADD12C,5.050000*%
%ADD13C,2.200000*%
%ADD14C,0.650000*%
%ADD15O,1.000000X2.100000*%
%ADD16O,1.000000X1.800000*%
%ADD17O,2.100000X1.000000*%
%ADD18O,1.800000X1.000000*%
G04 APERTURE END LIST*
D10*
%TO.C,SW6*%
X133294228Y-89750000D03*
D11*
X133794228Y-94900000D03*
D12*
X138794228Y-89750000D03*
D10*
X144294228Y-89750000D03*
D13*
X138794228Y-83850000D03*
X143794228Y-85950000D03*
%TD*%
D10*
%TO.C,SW18*%
X67863082Y-124772118D03*
D11*
X70871095Y-128982149D03*
D12*
X72626222Y-122022118D03*
D10*
X77389362Y-119272118D03*
D13*
X69676222Y-116912568D03*
X75056349Y-116231221D03*
%TD*%
D10*
%TO.C,SW10*%
X95294228Y-48750000D03*
D11*
X95794228Y-53900000D03*
D12*
X100794228Y-48750000D03*
D10*
X106294228Y-48750000D03*
D13*
X100794228Y-42850000D03*
X105794228Y-44950000D03*
%TD*%
D10*
%TO.C,SW16*%
X102794228Y-104850000D03*
D11*
X103294228Y-110000000D03*
D12*
X108294228Y-104850000D03*
D10*
X113794228Y-104850000D03*
D13*
X108294228Y-98950000D03*
X113294228Y-101050000D03*
%TD*%
D10*
%TO.C,SW17*%
X82813630Y-109695623D03*
D11*
X84629511Y-114540731D03*
D12*
X88126222Y-108272118D03*
D10*
X93438814Y-106848613D03*
D13*
X86599190Y-102573156D03*
X91972339Y-103307505D03*
%TD*%
D10*
%TO.C,SW15*%
X76294228Y-89750000D03*
D11*
X76794228Y-94900000D03*
D12*
X81794228Y-89750000D03*
D10*
X87294228Y-89750000D03*
D13*
X81794228Y-83850000D03*
X86794228Y-85950000D03*
%TD*%
D10*
%TO.C,SW4*%
X133294228Y-51500000D03*
D11*
X133794228Y-56650000D03*
D12*
X138794228Y-51500000D03*
D10*
X144294228Y-51500000D03*
D13*
X138794228Y-45600000D03*
X143794228Y-47700000D03*
%TD*%
D10*
%TO.C,SW9*%
X114294228Y-84500000D03*
D11*
X114794228Y-89650000D03*
D12*
X119794228Y-84500000D03*
D10*
X125294228Y-84500000D03*
D13*
X119794228Y-78600000D03*
X124794228Y-80700000D03*
%TD*%
D10*
%TO.C,SW3*%
X152294228Y-97500000D03*
D11*
X152794228Y-102650000D03*
D12*
X157794228Y-97500000D03*
D10*
X163294228Y-97500000D03*
D13*
X157794228Y-91600000D03*
X162794228Y-93700000D03*
%TD*%
D10*
%TO.C,SW2*%
X152294228Y-78375000D03*
D11*
X152794228Y-83525000D03*
D12*
X157794228Y-78375000D03*
D10*
X163294228Y-78375000D03*
D13*
X157794228Y-72475000D03*
X162794228Y-74575000D03*
%TD*%
D10*
%TO.C,SW1*%
X152294228Y-59250000D03*
D11*
X152794228Y-64400000D03*
D12*
X157794228Y-59250000D03*
D10*
X163294228Y-59250000D03*
D13*
X157794228Y-53350000D03*
X162794228Y-55450000D03*
%TD*%
D14*
%TO.C,J2_toHost1*%
X159850000Y-44369999D03*
X154070000Y-44369999D03*
D15*
X161280000Y-44869999D03*
D16*
X161280000Y-40689999D03*
D15*
X152640000Y-44869999D03*
D16*
X152640000Y-40689999D03*
%TD*%
D10*
%TO.C,SW8*%
X114294228Y-65375000D03*
D11*
X114794228Y-70525000D03*
D12*
X119794228Y-65375000D03*
D10*
X125294228Y-65375000D03*
D13*
X119794228Y-59475000D03*
X124794228Y-61575000D03*
%TD*%
D10*
%TO.C,SW7*%
X114294228Y-46250000D03*
D11*
X114794228Y-51400000D03*
D12*
X119794228Y-46250000D03*
D10*
X125294228Y-46250000D03*
D13*
X119794228Y-40350000D03*
X124794228Y-42450000D03*
%TD*%
D10*
%TO.C,SW13*%
X76294228Y-51500000D03*
D11*
X76794228Y-56650000D03*
D12*
X81794228Y-51500000D03*
D10*
X87294228Y-51500000D03*
D13*
X81794228Y-45600000D03*
X86794228Y-47700000D03*
%TD*%
D10*
%TO.C,SW5*%
X133294228Y-70625000D03*
D11*
X133794228Y-75775000D03*
D12*
X138794228Y-70625000D03*
D10*
X144294228Y-70625000D03*
D13*
X138794228Y-64725000D03*
X143794228Y-66825000D03*
%TD*%
D10*
%TO.C,SW11*%
X95294228Y-67875000D03*
D11*
X95794228Y-73025000D03*
D12*
X100794228Y-67875000D03*
D10*
X106294228Y-67875000D03*
D13*
X100794228Y-61975000D03*
X105794228Y-64075000D03*
%TD*%
D10*
%TO.C,SW12*%
X95294228Y-87000000D03*
D11*
X95794228Y-92150000D03*
D12*
X100794228Y-87000000D03*
D10*
X106294228Y-87000000D03*
D13*
X100794228Y-81100000D03*
X105794228Y-83200000D03*
%TD*%
D10*
%TO.C,SW14*%
X76294228Y-70625000D03*
D11*
X76794228Y-75775000D03*
D12*
X81794228Y-70625000D03*
D10*
X87294228Y-70625000D03*
D13*
X81794228Y-64725000D03*
X86794228Y-66825000D03*
%TD*%
D14*
%TO.C,J1_toLeft1*%
X70224227Y-102930000D03*
X70224227Y-108710000D03*
D17*
X70724227Y-101500000D03*
D18*
X66544227Y-101500000D03*
D17*
X70724227Y-110140000D03*
D18*
X66544227Y-110140000D03*
%TD*%
M02*
