M48
; DRILL file {KiCad 8.0.4} date 2024-08-15T01:20:29+0800
; FORMAT={-:-/ absolute / metric / decimal}
; #@! TF.CreationDate,2024-08-15T01:20:29+08:00
; #@! TF.GenerationSoftware,Kicad,Pcbnew,8.0.4
; #@! TF.FileFunction,NonPlated,1,2,NPTH
FMAT,2
METRIC
; #@! TA.AperFunction,NonPlated,NPTH,ComponentDrill
T1C0.650
; #@! TA.AperFunction,NonPlated,NPTH,ComponentDrill
T2C1.900
; #@! TA.AperFunction,NonPlated,NPTH,ComponentDrill
T3C5.050
%
G90
G05
T1
X70.224Y-102.93
X70.224Y-108.71
X154.07Y-44.37
X159.85Y-44.37
T2
X67.863Y-124.772
X76.294Y-51.5
X76.294Y-70.625
X76.294Y-89.75
X77.389Y-119.272
X82.814Y-109.696
X87.294Y-51.5
X87.294Y-70.625
X87.294Y-89.75
X93.439Y-106.849
X95.294Y-48.75
X95.294Y-67.875
X95.294Y-87.0
X102.794Y-104.85
X106.294Y-48.75
X106.294Y-67.875
X106.294Y-87.0
X113.794Y-104.85
X114.294Y-46.25
X114.294Y-65.375
X114.294Y-84.5
X125.294Y-46.25
X125.294Y-65.375
X125.294Y-84.5
X133.294Y-51.5
X133.294Y-70.625
X133.294Y-89.75
X144.294Y-51.5
X144.294Y-70.625
X144.294Y-89.75
X152.294Y-59.25
X152.294Y-78.375
X152.294Y-97.5
X163.294Y-59.25
X163.294Y-78.375
X163.294Y-97.5
T3
X72.626Y-122.022
X81.794Y-51.5
X81.794Y-70.625
X81.794Y-89.75
X88.126Y-108.272
X100.794Y-48.75
X100.794Y-67.875
X100.794Y-87.0
X108.294Y-104.85
X119.794Y-46.25
X119.794Y-65.375
X119.794Y-84.5
X138.794Y-51.5
X138.794Y-70.625
X138.794Y-89.75
X157.794Y-59.25
X157.794Y-78.375
X157.794Y-97.5
M30
