%TF.GenerationSoftware,KiCad,Pcbnew,8.0.4*%
%TF.CreationDate,2024-08-15T01:19:59+08:00*%
%TF.ProjectId,gemini_right,67656d69-6e69-45f7-9269-6768742e6b69,rev?*%
%TF.SameCoordinates,Original*%
%TF.FileFunction,Paste,Top*%
%TF.FilePolarity,Positive*%
%FSLAX46Y46*%
G04 Gerber Fmt 4.6, Leading zero omitted, Abs format (unit mm)*
G04 Created by KiCad (PCBNEW 8.0.4) date 2024-08-15 01:19:59*
%MOMM*%
%LPD*%
G01*
G04 APERTURE LIST*
G04 Aperture macros list*
%AMRoundRect*
0 Rectangle with rounded corners*
0 $1 Rounding radius*
0 $2 $3 $4 $5 $6 $7 $8 $9 X,Y pos of 4 corners*
0 Add a 4 corners polygon primitive as box body*
4,1,4,$2,$3,$4,$5,$6,$7,$8,$9,$2,$3,0*
0 Add four circle primitives for the rounded corners*
1,1,$1+$1,$2,$3*
1,1,$1+$1,$4,$5*
1,1,$1+$1,$6,$7*
1,1,$1+$1,$8,$9*
0 Add four rect primitives between the rounded corners*
20,1,$1+$1,$2,$3,$4,$5,0*
20,1,$1+$1,$4,$5,$6,$7,0*
20,1,$1+$1,$6,$7,$8,$9,0*
20,1,$1+$1,$8,$9,$2,$3,0*%
G04 Aperture macros list end*
%ADD10RoundRect,0.250000X-0.109808X-0.409808X0.409808X-0.109808X0.109808X0.409808X-0.409808X0.109808X0*%
%ADD11RoundRect,0.140000X0.140000X-0.140000X0.140000X0.140000X-0.140000X0.140000X-0.140000X-0.140000X0*%
%ADD12RoundRect,0.062500X0.062500X-0.325000X0.062500X0.325000X-0.062500X0.325000X-0.062500X-0.325000X0*%
%ADD13R,1.250000X0.300000*%
%ADD14R,2.500000X2.000000*%
%ADD15RoundRect,0.250000X-0.300000X-0.300000X0.300000X-0.300000X0.300000X0.300000X-0.300000X0.300000X0*%
%ADD16RoundRect,0.237500X0.250000X0.237500X-0.250000X0.237500X-0.250000X-0.237500X0.250000X-0.237500X0*%
%ADD17RoundRect,0.237500X0.300000X0.237500X-0.300000X0.237500X-0.300000X-0.237500X0.300000X-0.237500X0*%
%ADD18R,0.700000X1.550000*%
%ADD19R,3.500000X2.600000*%
%ADD20RoundRect,0.237500X-0.250000X-0.237500X0.250000X-0.237500X0.250000X0.237500X-0.250000X0.237500X0*%
%ADD21RoundRect,0.237500X-0.300000X-0.237500X0.300000X-0.237500X0.300000X0.237500X-0.300000X0.237500X0*%
%ADD22RoundRect,0.150000X0.150000X-0.512500X0.150000X0.512500X-0.150000X0.512500X-0.150000X-0.512500X0*%
%ADD23RoundRect,0.237500X-0.237500X0.300000X-0.237500X-0.300000X0.237500X-0.300000X0.237500X0.300000X0*%
%ADD24R,0.450000X1.475000*%
%ADD25RoundRect,0.237500X0.237500X-0.300000X0.237500X0.300000X-0.237500X0.300000X-0.237500X-0.300000X0*%
%ADD26RoundRect,0.237500X-0.237500X0.250000X-0.237500X-0.250000X0.237500X-0.250000X0.237500X0.250000X0*%
%ADD27RoundRect,0.237500X0.287500X0.237500X-0.287500X0.237500X-0.287500X-0.237500X0.287500X-0.237500X0*%
%ADD28RoundRect,0.237500X0.237500X-0.250000X0.237500X0.250000X-0.237500X0.250000X-0.237500X-0.250000X0*%
%ADD29R,1.250000X1.000000*%
%ADD30RoundRect,0.250000X-0.212132X-0.367423X0.367423X-0.212132X0.212132X0.367423X-0.367423X0.212132X0*%
%ADD31RoundRect,0.150000X0.150000X0.425000X-0.150000X0.425000X-0.150000X-0.425000X0.150000X-0.425000X0*%
%ADD32RoundRect,0.075000X0.075000X0.500000X-0.075000X0.500000X-0.075000X-0.500000X0.075000X-0.500000X0*%
%ADD33O,1.000000X2.100000*%
%ADD34O,1.000000X1.800000*%
%ADD35R,1.500000X2.500000*%
%ADD36R,1.700000X0.700000*%
%ADD37R,2.500000X1.800000*%
%ADD38R,0.700000X0.700000*%
%ADD39R,1.500000X0.900000*%
%ADD40RoundRect,0.150000X-0.425000X0.150000X-0.425000X-0.150000X0.425000X-0.150000X0.425000X0.150000X0*%
%ADD41RoundRect,0.075000X-0.500000X0.075000X-0.500000X-0.075000X0.500000X-0.075000X0.500000X0.075000X0*%
%ADD42O,2.100000X1.000000*%
%ADD43O,1.800000X1.000000*%
G04 APERTURE END LIST*
D10*
%TO.C,D18*%
X73913787Y-127052245D03*
X76338659Y-125652245D03*
%TD*%
D11*
%TO.C,IC1*%
X67350000Y-59560000D03*
X68050000Y-59560000D03*
X67350000Y-58860000D03*
X68050000Y-58860000D03*
D12*
X66950000Y-60672500D03*
X67450000Y-60672500D03*
X67950000Y-60672500D03*
X68450000Y-60672500D03*
X68450000Y-57747500D03*
X67950000Y-57747500D03*
X67450000Y-57747500D03*
X66950000Y-57747500D03*
%TD*%
D13*
%TO.C,J1*%
X71337500Y-50875000D03*
X71337500Y-51375000D03*
X71337500Y-51875000D03*
X71337500Y-52375000D03*
X71337500Y-52875000D03*
X71337500Y-53375000D03*
D14*
X68762500Y-49185000D03*
X68762500Y-55065000D03*
%TD*%
D15*
%TO.C,D2*%
X156494228Y-83375000D03*
X159294228Y-83375000D03*
%TD*%
%TO.C,D5*%
X137494228Y-75625000D03*
X140294228Y-75625000D03*
%TD*%
D16*
%TO.C,R4*%
X121054500Y-98044000D03*
X119229500Y-98044000D03*
%TD*%
D17*
%TO.C,C8*%
X145261501Y-109220000D03*
X143536499Y-109220000D03*
%TD*%
D15*
%TO.C,D15*%
X80394228Y-94750000D03*
X83194228Y-94750000D03*
%TD*%
D17*
%TO.C,C12*%
X145261501Y-111823500D03*
X143536499Y-111823500D03*
%TD*%
D18*
%TO.C,U1*%
X71804999Y-80350000D03*
X70535000Y-80350000D03*
X69265000Y-80350000D03*
X67995001Y-80350000D03*
X67995001Y-85800000D03*
X69265000Y-85800000D03*
X70535000Y-85800000D03*
X71804999Y-85800000D03*
D19*
X69900000Y-83075000D03*
%TD*%
D20*
%TO.C,R10*%
X161428301Y-108800600D03*
X163253301Y-108800600D03*
%TD*%
D21*
%TO.C,C2*%
X70762498Y-89435000D03*
X72487500Y-89435000D03*
%TD*%
D20*
%TO.C,R9*%
X161428301Y-106965600D03*
X163253301Y-106965600D03*
%TD*%
D22*
%TO.C,U2*%
X69530001Y-93612500D03*
X71429999Y-93612500D03*
X70480000Y-91337500D03*
%TD*%
D20*
%TO.C,R8*%
X67881911Y-97570294D03*
X69706911Y-97570294D03*
%TD*%
D17*
%TO.C,C5*%
X145261501Y-113538000D03*
X143536499Y-113538000D03*
%TD*%
D15*
%TO.C,D8*%
X118444228Y-70375000D03*
X121244228Y-70375000D03*
%TD*%
%TO.C,D13*%
X80394228Y-56500000D03*
X83194228Y-56500000D03*
%TD*%
D23*
%TO.C,C11*%
X71625000Y-95893088D03*
X71625000Y-97618090D03*
%TD*%
D24*
%TO.C,IC2*%
X140951000Y-104738000D03*
X141601000Y-104738000D03*
X142251000Y-104738000D03*
X142901000Y-104738000D03*
X143551000Y-104738000D03*
X144201000Y-104738000D03*
X144851000Y-104738000D03*
X145501000Y-104738000D03*
X146151000Y-104738000D03*
X146801000Y-104738000D03*
X147451000Y-104738000D03*
X148101000Y-104738000D03*
X148101000Y-98862000D03*
X147451000Y-98862000D03*
X146801000Y-98862000D03*
X146151000Y-98862000D03*
X145501000Y-98862000D03*
X144851000Y-98862000D03*
X144201000Y-98862000D03*
X143551000Y-98862000D03*
X142901000Y-98862000D03*
X142251000Y-98862000D03*
X141601000Y-98862000D03*
X140951000Y-98862000D03*
%TD*%
D15*
%TO.C,D3*%
X156494228Y-102500000D03*
X159294228Y-102500000D03*
%TD*%
D25*
%TO.C,C6*%
X66504999Y-64487501D03*
X66504999Y-62762499D03*
%TD*%
D26*
%TO.C,R5*%
X163525001Y-43001911D03*
X163525001Y-44826911D03*
%TD*%
D15*
%TO.C,D10*%
X99444228Y-53750000D03*
X102244228Y-53750000D03*
%TD*%
D27*
%TO.C,D20*%
X159670799Y-108840600D03*
X157920801Y-108840600D03*
%TD*%
D20*
%TO.C,R7*%
X67881911Y-95835589D03*
X69706911Y-95835589D03*
%TD*%
%TO.C,R2*%
X68322500Y-64525001D03*
X70147500Y-64525001D03*
%TD*%
D25*
%TO.C,C7*%
X70164999Y-61767501D03*
X70164999Y-60042499D03*
%TD*%
D28*
%TO.C,R1*%
X66295000Y-85697498D03*
X66295000Y-83872498D03*
%TD*%
D15*
%TO.C,D7*%
X118444228Y-51250000D03*
X121244228Y-51250000D03*
%TD*%
D20*
%TO.C,R11*%
X67881911Y-99305000D03*
X69706911Y-99305000D03*
%TD*%
D29*
%TO.C,SW19*%
X149668000Y-110998000D03*
X157418000Y-110998000D03*
%TD*%
D15*
%TO.C,D12*%
X99444228Y-92000000D03*
X102244228Y-92000000D03*
%TD*%
%TO.C,D14*%
X80394228Y-75625000D03*
X83194228Y-75625000D03*
%TD*%
D25*
%TO.C,C16*%
X71875001Y-67337501D03*
X71875001Y-65612499D03*
%TD*%
D30*
%TO.C,D17*%
X88068022Y-113464094D03*
X90772614Y-112739400D03*
%TD*%
D31*
%TO.C,J2_toHost1*%
X160160000Y-45444999D03*
X159360000Y-45444999D03*
D32*
X158210000Y-45444999D03*
X157210000Y-45444999D03*
X156710000Y-45444999D03*
X155710000Y-45444999D03*
D31*
X154560000Y-45444999D03*
X153760000Y-45444999D03*
X153760000Y-45444999D03*
X154560000Y-45444999D03*
D32*
X155210000Y-45444999D03*
X156210000Y-45444999D03*
X157710000Y-45444999D03*
X158710000Y-45444999D03*
D31*
X159360000Y-45444999D03*
X160160000Y-45444999D03*
D33*
X161280000Y-44869999D03*
D34*
X161280000Y-40689999D03*
D33*
X152640000Y-44869999D03*
D34*
X152640000Y-40689999D03*
%TD*%
D26*
%TO.C,R6*%
X150394999Y-43001911D03*
X150394999Y-44826911D03*
%TD*%
D35*
%TO.C,L1*%
X67974999Y-76520000D03*
X71675001Y-76520000D03*
%TD*%
D15*
%TO.C,D16*%
X106894228Y-109850000D03*
X109694228Y-109850000D03*
%TD*%
D28*
%TO.C,R13*%
X141478000Y-111910500D03*
X141478000Y-110085500D03*
%TD*%
D16*
%TO.C,R12*%
X148867500Y-113538000D03*
X147042500Y-113538000D03*
%TD*%
D21*
%TO.C,C3*%
X70762499Y-87794411D03*
X72487501Y-87794411D03*
%TD*%
D15*
%TO.C,D1*%
X156494228Y-64250000D03*
X159294228Y-64250000D03*
%TD*%
%TO.C,D6*%
X137494228Y-94750000D03*
X140294228Y-94750000D03*
%TD*%
D23*
%TO.C,C13*%
X72005000Y-54672499D03*
X72005000Y-56397501D03*
%TD*%
D25*
%TO.C,C10*%
X67715000Y-92937502D03*
X67715000Y-91212500D03*
%TD*%
D26*
%TO.C,R3*%
X71875000Y-61812500D03*
X71875000Y-63637500D03*
%TD*%
D15*
%TO.C,D11*%
X99444228Y-72875000D03*
X102244228Y-72875000D03*
%TD*%
%TO.C,D4*%
X137494228Y-56500000D03*
X140294228Y-56500000D03*
%TD*%
D36*
%TO.C,J2*%
X71207503Y-68995000D03*
X71207503Y-70245000D03*
D37*
X68707503Y-66545000D03*
X68707503Y-72695000D03*
%TD*%
D38*
%TO.C,U3*%
X128270000Y-107061000D03*
X128270000Y-105961001D03*
X128270000Y-104861000D03*
X127170000Y-107061001D03*
X127170000Y-105961000D03*
X127170000Y-104861000D03*
X126070000Y-107061000D03*
X126070000Y-105961001D03*
X126070000Y-104861000D03*
D39*
X136880000Y-112161000D03*
X136880000Y-110661000D03*
X136880000Y-109161000D03*
X136880000Y-107661000D03*
X136880000Y-106161000D03*
X136880000Y-104661000D03*
X136880000Y-103161000D03*
X136880000Y-101661000D03*
X136880000Y-100161000D03*
X119380000Y-100161000D03*
X119380000Y-101661000D03*
X119380000Y-103161000D03*
X119380000Y-104661000D03*
X119380000Y-106161000D03*
X119380000Y-107661000D03*
X119380000Y-109161000D03*
X119380000Y-110661000D03*
X119380000Y-112161000D03*
%TD*%
D15*
%TO.C,D9*%
X118444228Y-89500000D03*
X121244228Y-89500000D03*
%TD*%
D27*
%TO.C,D19*%
X159670799Y-107005600D03*
X157920801Y-107005600D03*
%TD*%
D17*
%TO.C,C9*%
X154576912Y-48974706D03*
X152851910Y-48974706D03*
%TD*%
D40*
%TO.C,J1_toLeft1*%
X71299227Y-102620000D03*
X71299227Y-103420000D03*
D41*
X71299227Y-104570000D03*
X71299227Y-105570000D03*
X71299227Y-106070000D03*
X71299227Y-107070000D03*
D40*
X71299227Y-108220000D03*
X71299227Y-109020000D03*
X71299227Y-109020000D03*
X71299227Y-108220000D03*
D41*
X71299227Y-107570000D03*
X71299227Y-106570000D03*
X71299227Y-105070000D03*
X71299227Y-104070000D03*
D40*
X71299227Y-103420000D03*
X71299227Y-102620000D03*
D42*
X70724227Y-101500000D03*
D43*
X66544227Y-101500000D03*
D42*
X70724227Y-110140000D03*
D43*
X66544227Y-110140000D03*
%TD*%
D21*
%TO.C,C4*%
X67322498Y-87775000D03*
X69047500Y-87775000D03*
%TD*%
D25*
%TO.C,C1*%
X74055000Y-103382501D03*
X74055000Y-101657499D03*
%TD*%
M02*
